<?xml version="1.0" encoding="UTF-8" standalone="no"?>
<svg
   xmlns:dc="http://purl.org/dc/elements/1.1/"
   xmlns:cc="http://creativecommons.org/ns#"
   xmlns:rdf="http://www.w3.org/1999/02/22-rdf-syntax-ns#"
   xmlns:svg="http://www.w3.org/2000/svg"
   xmlns="http://www.w3.org/2000/svg"
   id="svg8"
   version="1.1"
   viewBox="0 0 64.804811 22.924701"
   height="86.644539"
   width="244.93158">
  <defs
     id="defs2" />
  <metadata
     id="metadata5">
    <rdf:RDF>
      <cc:Work
         rdf:about="">
        <dc:format>image/svg+xml</dc:format>
        <dc:type
           rdf:resource="http://purl.org/dc/dcmitype/StillImage" />
        <dc:title></dc:title>
      </cc:Work>
    </rdf:RDF>
  </metadata>
  <g
     transform="translate(-30.507713,-181.44577)"
     id="layer1">
    <path
       id="path4557"
       d="m 63.113978,181.44577 -2.433445,0.34572 v 5.72368 c -0.27364,-0.16448 -0.684167,-0.32067 -1.23145,-0.4687 -0.547282,-0.14804 -1.182113,-0.22221 -1.905309,-0.22221 -0.918652,0 -1.739705,0.14835 -2.462898,0.44441 -0.703649,0.29607 -1.309785,0.70718 -1.817979,1.23352 -0.50819,0.52635 -0.898895,1.15946 -1.172538,1.89963 -0.01853,0.0528 -0.03501,0.10705 -0.05219,0.16071 -0.02645,-0.0705 -0.05299,-0.14075 -0.08217,-0.20981 -0.293187,-0.74017 -0.713621,-1.36545 -1.260903,-1.87533 -0.547283,-0.52635 -1.201936,-0.9291 -1.964222,-1.20872 -0.762288,-0.29606 -1.592731,-0.44441 -2.491838,-0.44441 -0.87956,0 -1.700612,0.14835 -2.462898,0.44441 -0.742743,0.27962 -1.388001,0.68237 -1.935284,1.20872 -0.547282,0.50988 -0.977111,1.13516 -1.289844,1.87533 -0.293187,0.74018 -0.439766,1.56239 -0.439766,2.46704 0,0.90464 0.146579,1.72685 0.439766,2.46703 0.205987,0.47668 0.463791,0.91016 0.771531,1.30121 -0.451591,0.17286 -0.893993,0.30616 -1.326018,0.39326 -0.626782,0.10993 -1.223788,0.16228 -1.790589,0.15761 -0.762248,-0.006 -1.474144,-0.13536 -2.135785,-0.38757 -0.642096,-0.25205 -1.194665,-0.63501 -1.657781,-1.14877 -0.463116,-0.51375 -0.826815,-1.15844 -1.091407,-1.93373 -0.245046,-0.77513 -0.36164,-1.6888 -0.349332,-2.74143 0.01096,-0.9375 0.137989,-1.78371 0.381371,-2.53835 0.26293,-0.75448 0.622612,-1.40141 1.078489,-1.94045 0.455877,-0.53905 0.998069,-0.94565 1.626772,-1.22008 0.648441,-0.29075 1.373206,-0.43248 2.174544,-0.42581 1.133602,0.009 2.341931,0.3317 3.624586,0.96738 l 0.722952,-1.67173 c -0.718735,-0.38429 -1.458139,-0.66173 -2.218467,-0.83251 -0.740781,-0.17061 -1.472571,-0.2591 -2.195732,-0.2651 -1.035878,-0.009 -2.015162,0.15623 -2.937804,0.49402 -0.922647,0.3378 -1.730121,0.84079 -2.422075,1.50947 -0.691954,0.66869 -1.248722,1.49497 -1.670701,2.47841 -0.402431,0.9836 -0.611648,2.12472 -0.626835,3.42408 -0.01596,1.36513 0.156107,2.55103 0.515731,3.5574 0.379169,1.00653 0.897078,1.84137 1.553911,2.50476 0.657027,0.64696 1.433322,1.13897 2.32854,1.47536 0.914956,0.32014 1.909863,0.48464 2.984831,0.49351 0.879517,0.007 1.70131,-0.0682 2.465482,-0.22634 0.783527,-0.14156 1.519185,-0.37435 2.207102,-0.69763 l -0.132811,-0.35761 c 0.405704,0.2965 0.85344,0.54371 1.344623,0.73949 0.762286,0.27962 1.583338,0.41962 2.462898,0.41962 0.899107,0 1.72955,-0.14 2.491838,-0.41962 0.762286,-0.29606 1.416939,-0.70717 1.964222,-1.23351 0.547282,-0.52635 0.967716,-1.15163 1.260903,-1.87534 0.03795,-0.0898 0.07363,-0.18061 0.106971,-0.27285 0.0358,0.10076 0.07399,0.20004 0.11524,0.29765 0.312729,0.74018 0.752469,1.37329 1.319297,1.89963 0.56683,0.5099 1.251212,0.90481 2.05259,1.18442 0.801378,0.27962 1.690764,0.41962 2.668053,0.41962 1.094565,0 2.052285,-0.0658 2.873211,-0.19741 0.82092,-0.13158 1.494877,-0.26322 2.022615,-0.3948 v -9.42475 h 3.66696 v 5.32887 c 0,0.77307 0.06833,1.45581 0.205155,2.04794 0.136822,0.57568 0.371555,1.06096 0.703834,1.45572 0.351825,0.39475 0.811382,0.69093 1.37821,0.88832 0.56683,0.19737 1.279906,0.29611 2.13992,0.29611 0.371372,0 0.723472,-0.0246 1.055751,-0.0739 0.351825,-0.0493 0.664287,-0.10732 0.937927,-0.17312 0.293188,-0.0658 0.547225,-0.1316 0.762228,-0.1974 0.05143,-0.0197 0.07353,-0.0292 0.119372,-0.047 v 0.22014 h 2.433444 v -9.67177 c 0.410461,-0.0658 0.830898,-0.11492 1.260904,-0.14779 0.449553,-0.0493 0.869989,-0.0744 1.260906,-0.0744 0.469098,0 0.898927,0.0496 1.289844,0.14831 0.410461,0.0987 0.752652,0.27943 1.026292,0.5426 0.293187,0.24672 0.518012,0.60036 0.674378,1.06092 0.156366,0.46054 0.234611,1.06074 0.234611,1.80092 v 6.34122 H 84.6677 v -2.87011 c 0.257496,0.42709 0.560615,0.80069 0.911056,1.11827 0.527735,0.44411 1.133356,0.78104 1.81746,1.01131 0.703649,0.21383 1.456365,0.32091 2.257743,0.32091 0.74274,0 1.397391,-0.0742 1.964221,-0.22221 0.566828,-0.14802 0.987261,-0.2875 1.260904,-0.41909 v 0.39481 c 0,1.06913 -0.303065,1.84172 -0.908987,2.31872 -0.605922,0.477 -1.612675,0.71572 -3.019972,0.71572 -0.781831,0 -1.504818,-0.0575 -2.169377,-0.1726 -0.645007,-0.11514 -1.221936,-0.26349 -1.730127,-0.44442 l -0.439766,1.80144 c 0.547282,0.16448 1.172723,0.30396 1.876372,0.41909 0.723193,0.11513 1.524942,0.17312 2.404504,0.17312 2.150039,0 3.752503,-0.39492 4.807976,-1.18442 1.075018,-0.78952 1.612821,-2.07246 1.612821,-3.84886 v -10.21436 c -0.566827,-0.13158 -1.270508,-0.26323 -2.110983,-0.39481 -0.820923,-0.14804 -1.817767,-0.22221 -2.990514,-0.22221 -0.996836,0 -1.886223,0.14835 -2.668056,0.44441 -0.78183,0.27962 -1.446392,0.67402 -1.993675,1.18391 -0.454562,0.4392 -0.821711,0.95227 -1.102259,1.53789 -0.22424,-0.82649 -0.619049,-1.47947 -1.18649,-1.95698 -0.918654,-0.78952 -2.2869,-1.18443 -4.104658,-1.18443 -0.762289,0 -1.583339,0.0491 -2.462901,0.1478 -0.860015,0.0987 -1.7301,0.23868 -2.609659,0.41961 v 9.04182 c -0.271659,0.1271 -0.642432,0.247 -1.116211,0.35864 -0.469101,0.11514 -0.987081,0.1726 -1.553911,0.1726 -0.742741,0 -1.299329,-0.1891 -1.670699,-0.56741 -0.371369,-0.39476 -0.557072,-1.16002 -0.557072,-2.29495 v -7.03161 h -6.071462 z m 4.282942,0.56741 c -0.508193,0 -0.94793,0.14835 -1.319299,0.44442 -0.371372,0.29607 -0.557073,0.69882 -0.557073,1.20871 0,0.5099 0.185701,0.91265 0.557073,1.20871 0.371369,0.29607 0.811106,0.44442 1.319299,0.44442 0.527736,0 0.967473,-0.14835 1.319298,-0.44442 0.371371,-0.29606 0.557072,-0.69881 0.557072,-1.20871 0,-0.50989 -0.185701,-0.91264 -0.557072,-1.20871 -0.351825,-0.29607 -0.791562,-0.44442 -1.319298,-0.44442 z m -21.157882,6.61252 c 1.133658,0 2.032437,0.37819 2.696993,1.13481 0.664557,0.74017 0.996839,1.75984 0.996839,3.05925 0,1.28296 -0.332282,2.30263 -0.996839,3.05924 -0.664556,0.74018 -1.563335,1.11053 -2.696993,1.11053 -1.11411,0 -2.003496,-0.37035 -2.668055,-1.11053 -0.645007,-0.75661 -0.967899,-1.77628 -0.967899,-3.05924 0,-1.29941 0.322892,-2.31908 0.967899,-3.05925 0.664559,-0.75662 1.553945,-1.13481 2.668055,-1.13481 z m 11.597741,0 c 0.56683,0 1.114025,0.0982 1.64176,0.29559 0.527738,0.18093 0.928354,0.37838 1.201994,0.59221 v 7.25382 c -0.195458,0.0494 -0.507918,0.099 -0.937926,0.14831 -0.410462,0.0493 -0.918536,0.0739 -1.524455,0.0739 -1.192295,0 -2.159924,-0.362 -2.902665,-1.08572 -0.742741,-0.72372 -1.114144,-1.75175 -1.114144,-3.08405 0,-0.59214 0.06833,-1.14324 0.205155,-1.65313 0.136821,-0.52635 0.351734,-0.97036 0.644922,-1.33222 0.293187,-0.37831 0.664591,-0.67449 1.114144,-0.88832 0.469099,-0.21383 1.026203,-0.32039 1.671215,-0.32039 z m 32.403708,0 c 0.703649,0 1.260237,0.0329 1.670698,0.0987 0.410461,0.0493 0.733346,0.1068 0.967899,0.1726 v 6.6859 c -0.33228,0.19737 -0.772017,0.37027 -1.3193,0.51831 -0.527733,0.14803 -1.094751,0.22221 -1.70067,0.22221 -0.469099,0 -0.908839,-0.0658 -1.3193,-0.19741 -0.410461,-0.14803 -0.781865,-0.37004 -1.114145,-0.6661 -0.312729,-0.31252 -0.566769,-0.69908 -0.762224,-1.15962 -0.175914,-0.477 -0.264068,-1.04481 -0.264068,-1.70274 0,-1.20072 0.322371,-2.16292 0.967383,-2.88665 0.664557,-0.72371 1.622793,-1.0852 2.873727,-1.0852 z m -37.164139,10.36009 c -1.794976,0 -3.124875,1.15442 -3.124875,2.70991 0,1.52029 1.362567,2.67477 3.165697,2.67477 1.223846,0 2.154209,-0.49302 2.757972,-1.45727 h -0.669211 c -0.252926,0.27449 -0.399605,0.41559 -0.60358,0.54932 -0.399789,0.2745 -0.946796,0.42891 -1.493449,0.42891 -1.395182,0 -2.54558,-0.99928 -2.54558,-2.21692 0,-1.25285 1.101336,-2.2102 2.537312,-2.2102 0.522176,0 1.012012,0.11965 1.411801,0.35192 0.269247,0.14781 0.43249,0.30269 0.660942,0.61236 h 0.67696 c -0.465061,-0.89387 -1.525669,-1.4428 -2.773989,-1.4428 z m 6.69468,0 c -1.729703,0 -3.190502,1.21794 -3.190502,2.66082 0,1.51326 1.420006,2.72386 3.190502,2.72386 1.74602,0 3.181718,-1.2177 3.181718,-2.68872 0,-1.48511 -1.435698,-2.69596 -3.181718,-2.69596 z m 7.09104,0 c -1.7297,0 -3.189986,1.21794 -3.189986,2.66082 0,1.51326 1.419489,2.72386 3.189986,2.72386 1.74602,0 3.182236,-1.2177 3.182236,-2.68872 0,-1.48511 -1.436216,-2.69596 -3.182236,-2.69596 z m 4.16202,0.0915 v 5.20175 h 0.604097 v -1.42214 l 0.782899,-0.83044 2.007113,2.25258 h 0.759127 l -2.382285,-2.66806 2.382285,-2.53369 h -0.759127 l -2.790012,2.99154 v -2.99154 z m 4.828646,0 v 5.20175 h 3.296441 v -0.47181 h -2.692861 v -1.92133 h 2.602942 v -0.47181 h -2.602942 v -1.865 h 2.692861 v -0.4718 z m 4.366141,0 v 5.20175 h 0.604099 v -4.72995 h 0.848527 c 0.636399,0 1.060635,0.0559 1.386996,0.18965 0.407947,0.16894 0.636135,0.52114 0.636135,0.99271 0,0.59123 -0.309875,0.95736 -0.913638,1.09812 -0.285565,0.0633 -0.677135,0.0915 -1.346171,0.0915 l 2.031399,2.358 h 0.750859 l -1.688785,-1.94304 c 1.158573,-0.10557 1.778185,-0.66132 1.778185,-1.58336 0,-0.65458 -0.317924,-1.14712 -0.90537,-1.42162 -0.375312,-0.17596 -0.897369,-0.25373 -1.688785,-0.25373 z m -20.447847,0.38705 c 1.403342,0 2.569869,1.00652 2.569869,2.22416 0,1.20357 -1.166527,2.20296 -2.569869,2.20296 -1.419661,0 -2.578653,-0.99914 -2.578653,-2.23087 0,-1.18948 1.183468,-2.19625 2.578653,-2.19625 z m 7.09104,0 c 1.403342,0 2.569869,1.00652 2.569869,2.22416 0,1.20357 -1.166527,2.20296 -2.569869,2.20296 -1.419662,0 -2.578137,-0.99914 -2.578137,-2.23087 0,-1.18948 1.182955,-2.19625 2.578137,-2.19625 z"
       style="font-style:normal;font-variant:normal;font-weight:normal;font-stretch:normal;font-size:26.89536095px;line-height:9.00514221px;font-family:'Ubuntu Mono';-inkscape-font-specification:'Ubuntu Mono, Normal';font-variant-ligatures:normal;font-variant-caps:normal;font-variant-numeric:normal;font-feature-settings:normal;text-align:start;letter-spacing:-3.60205722px;word-spacing:0px;writing-mode:lr-tb;text-anchor:start;fill:#c83737;fill-opacity:1;stroke:none;stroke-width:0.36020571" />
  </g>
</svg>
