<?xml version="1.0" encoding="UTF-8" standalone="no"?>
<!-- Created with Inkscape (http://www.inkscape.org/) -->

<svg
   xmlns:osb="http://www.openswatchbook.org/uri/2009/osb"
   xmlns:dc="http://purl.org/dc/elements/1.1/"
   xmlns:cc="http://creativecommons.org/ns#"
   xmlns:rdf="http://www.w3.org/1999/02/22-rdf-syntax-ns#"
   xmlns:svg="http://www.w3.org/2000/svg"
   xmlns="http://www.w3.org/2000/svg"
   xmlns:sodipodi="http://sodipodi.sourceforge.net/DTD/sodipodi-0.dtd"
   xmlns:inkscape="http://www.inkscape.org/namespaces/inkscape"
   width="153.57422"
   height="74.813286"
   viewBox="0 0 40.633177 19.794349"
   version="1.1"
   id="svg8"
   inkscape:version="0.92.0 15301"
   sodipodi:docname="logo-1.svg">
  <defs
     id="defs2">
    <linearGradient
       osb:paint="solid"
       id="linearGradient5962">
      <stop
         id="stop5960"
         offset="0"
         style="stop-color:#dd28ca;stop-opacity:1;" />
    </linearGradient>
  </defs>
  <sodipodi:namedview
     id="base"
     pagecolor="#ffffff"
     bordercolor="#666666"
     borderopacity="1.0"
     inkscape:pageopacity="0.0"
     inkscape:pageshadow="2"
     inkscape:zoom="1"
     inkscape:cx="75.066656"
     inkscape:cy="-68.999958"
     inkscape:document-units="mm"
     inkscape:current-layer="layer1-9"
     showgrid="false"
     inkscape:window-width="1319"
     inkscape:window-height="744"
     inkscape:window-x="47"
     inkscape:window-y="24"
     inkscape:window-maximized="1"
     units="px"
     width="500px"
     fit-margin-top="0"
     fit-margin-left="0"
     fit-margin-right="0"
     fit-margin-bottom="0" />
  <metadata
     id="metadata5">
    <rdf:RDF>
      <cc:Work
         rdf:about="">
        <dc:format>image/svg+xml</dc:format>
        <dc:type
           rdf:resource="http://purl.org/dc/dcmitype/StillImage" />
        <dc:title></dc:title>
      </cc:Work>
    </rdf:RDF>
  </metadata>
  <g
     inkscape:label="Layer 1"
     inkscape:groupmode="layer"
     id="layer1"
     transform="translate(-38.082364,-195.44942)">
    <g
       transform="matrix(2.1901745,0,0,2.0650653,-42.836846,-404.44761)"
       id="layer1-9"
       inkscape:label="Layer 1">
      <path
         inkscape:connector-curvature="0"
         id="path4590"
         style="font-style:normal;font-variant:normal;font-weight:normal;font-stretch:normal;font-size:6.63521433px;line-height:3.11025667px;font-family:'Ubuntu Condensed';-inkscape-font-specification:'Ubuntu Condensed, Normal';font-variant-ligatures:normal;font-variant-caps:normal;font-variant-numeric:normal;font-feature-settings:normal;text-align:start;letter-spacing:0px;word-spacing:0px;writing-mode:lr-tb;text-anchor:start;fill:#000000;fill-opacity:1;stroke:none;stroke-width:0.17293908"
         d="m 38.570082,300.05744 q -0.786036,0 -1.204825,-1.20156 -0.41879,-1.20156 -0.41879,-3.71028 0,-1.28076 0.115973,-2.16542 0.122415,-0.88467 0.335031,-1.43924 0.212616,-0.55457 0.502547,-0.79224 0.289932,-0.25085 0.631406,-0.25085 0.283489,0 0.528319,0.15845 0.244831,0.14531 0.399461,0.3697 l -0.173959,0.99031 q -0.15463,-0.21128 -0.335032,-0.34331 -0.173957,-0.13198 -0.405903,-0.13198 -0.515433,0 -0.747378,0.88466 -0.231945,0.87145 -0.231945,2.72 0,1.86175 0.24483,2.86523 0.244832,1.0035 0.798922,1.0035 0.26416,0 0.425233,-0.13198 0.167516,-0.13217 0.322146,-0.34331 l 0.161072,0.93748 q -0.148187,0.23769 -0.393018,0.40931 -0.238388,0.17178 -0.55409,0.17178 z" />
      <path
         inkscape:connector-curvature="0"
         id="path4592"
         style="font-style:normal;font-variant:normal;font-weight:normal;font-stretch:normal;font-size:6.63521433px;line-height:3.11025667px;font-family:'Ubuntu Condensed';-inkscape-font-specification:'Ubuntu Condensed, Normal';font-variant-ligatures:normal;font-variant-caps:normal;font-variant-numeric:normal;font-feature-settings:normal;text-align:start;letter-spacing:0px;word-spacing:0px;writing-mode:lr-tb;text-anchor:start;fill:#000000;fill-opacity:1;stroke:none;stroke-width:0.12441027"
         d="m 43.086465,292.97831 q 0,0.5535 -0.09664,1.01132 -0.0902,0.45099 -0.289932,0.77899 -0.193287,0.32117 -0.496104,0.49884 -0.296374,0.17766 -0.702277,0.17766 -0.405905,0 -0.708722,-0.17766 -0.296374,-0.17767 -0.496105,-0.49884 -0.193287,-0.328 -0.28993,-0.77899 -0.09665,-0.45782 -0.09665,-1.01132 0,-0.55349 0.09665,-1.01132 0.09665,-0.45782 0.28993,-0.77899 0.199731,-0.328 0.496105,-0.50566 0.302817,-0.18449 0.708722,-0.18449 0.405903,0 0.702277,0.18449 0.302817,0.17766 0.496104,0.50566 0.199731,0.32117 0.289932,0.77899 0.09664,0.45783 0.09664,1.01132 z m -0.618519,0 q 0,-0.43049 -0.05154,-0.78582 -0.05154,-0.35533 -0.167516,-0.60817 -0.115972,-0.25965 -0.302817,-0.40315 -0.180402,-0.1435 -0.444561,-0.1435 -0.264159,0 -0.451004,0.1435 -0.180401,0.1435 -0.296374,0.40315 -0.115973,0.25284 -0.173959,0.60817 -0.05154,0.35533 -0.05154,0.78582 0,0.4305 0.05154,0.78583 0.05799,0.35533 0.173959,0.60815 0.115973,0.25284 0.296374,0.39633 0.186845,0.13667 0.451004,0.13667 0.264159,0 0.444561,-0.13667 0.186845,-0.14349 0.302817,-0.39633 0.115972,-0.25282 0.167516,-0.60815 0.05154,-0.35533 0.05154,-0.78583 z" />
      <path
         inkscape:connector-curvature="0"
         id="path4594"
         style="font-style:normal;font-variant:normal;font-weight:normal;font-stretch:normal;font-size:6.63521433px;line-height:3.11025667px;font-family:'Ubuntu Condensed';-inkscape-font-specification:'Ubuntu Condensed, Normal';font-variant-ligatures:normal;font-variant-caps:normal;font-variant-numeric:normal;font-feature-settings:normal;text-align:start;letter-spacing:0px;word-spacing:0px;writing-mode:lr-tb;text-anchor:start;fill:#000000;fill-opacity:1;stroke:none;stroke-width:0.12441027"
         d="m 46.807048,292.97148 q 0,0.66283 -0.135301,1.12748 -0.128858,0.45783 -0.380132,0.74483 -0.244831,0.287 -0.599191,0.41683 -0.347917,0.12983 -0.779593,0.12983 -0.438118,0 -0.92778,-0.12299 v -4.59195 q 0.244831,-0.0547 0.476776,-0.0889 0.231945,-0.0342 0.444561,-0.0342 0.438119,0 0.786036,0.12983 0.35436,0.12983 0.599191,0.41682 0.251274,0.287 0.380132,0.75167 0.135301,0.45782 0.135301,1.12064 z m -0.618519,0 q 0,-0.50566 -0.07088,-0.86099 -0.07088,-0.35532 -0.219059,-0.58083 -0.148187,-0.22549 -0.393018,-0.328 -0.238388,-0.10247 -0.573419,-0.10247 -0.0902,0 -0.180402,0.007 -0.0902,0.007 -0.186844,0.0205 v 3.68995 q 0.09665,0.0137 0.186844,0.0205 0.0902,0.007 0.173959,0.007 0.341474,0 0.579862,-0.10247 0.238388,-0.10247 0.386575,-0.32116 0.15463,-0.22549 0.225502,-0.58082 0.07088,-0.35534 0.07088,-0.86783 z" />
      <path
         inkscape:connector-curvature="0"
         id="path4596"
         style="font-style:normal;font-variant:normal;font-weight:normal;font-stretch:normal;font-size:6.63521433px;line-height:3.11025667px;font-family:'Ubuntu Condensed';-inkscape-font-specification:'Ubuntu Condensed, Normal';font-variant-ligatures:normal;font-variant-caps:normal;font-variant-numeric:normal;font-feature-settings:normal;text-align:start;letter-spacing:0px;word-spacing:0px;writing-mode:lr-tb;text-anchor:start;fill:#000000;fill-opacity:1;stroke:none;stroke-width:0.12441027"
         d="m 47.703721,290.60718 h 0.579863 v 4.73544 h -0.579863 z" />
      <path
         inkscape:connector-curvature="0"
         id="path4598"
         style="font-style:normal;font-variant:normal;font-weight:normal;font-stretch:normal;font-size:6.63521433px;line-height:3.11025667px;font-family:'Ubuntu Condensed';-inkscape-font-specification:'Ubuntu Condensed, Normal';font-variant-ligatures:normal;font-variant-caps:normal;font-variant-numeric:normal;font-feature-settings:normal;text-align:start;letter-spacing:0px;word-spacing:0px;writing-mode:lr-tb;text-anchor:start;fill:#000000;fill-opacity:1;stroke:none;stroke-width:0.12441027"
         d="m 51.555376,295.34262 q -0.154629,-0.40317 -0.35436,-0.86783 -0.193287,-0.47149 -0.412346,-0.94298 -0.212616,-0.47833 -0.438119,-0.94299 -0.225501,-0.4715 -0.444561,-0.87466 v 3.62846 h -0.541205 v -4.73544 h 0.483218 q 0.244832,0.42365 0.470334,0.86782 0.231945,0.44416 0.438118,0.88148 0.206174,0.4305 0.386576,0.85417 0.186844,0.41682 0.341474,0.79265 v -3.39612 h 0.541205 v 4.73544 z" />
      <path
         inkscape:connector-curvature="0"
         id="path4600"
         style="font-style:normal;font-variant:normal;font-weight:normal;font-stretch:normal;font-size:6.63521433px;line-height:3.11025667px;font-family:'Ubuntu Condensed';-inkscape-font-specification:'Ubuntu Condensed, Normal';font-variant-ligatures:normal;font-variant-caps:normal;font-variant-numeric:normal;font-feature-settings:normal;text-align:start;letter-spacing:0px;word-spacing:0px;writing-mode:lr-tb;text-anchor:start;fill:#000000;fill-opacity:1;stroke:none;stroke-width:0.12441027"
         d="m 52.915336,292.97148 q 0,-0.66966 0.115972,-1.14116 0.115973,-0.47149 0.328589,-0.76532 0.219059,-0.30066 0.521876,-0.43049 0.30926,-0.13666 0.689392,-0.13666 0.289932,0 0.52832,0.0889 0.238388,0.082 0.386574,0.19134 l -0.180402,0.51249 q -0.148186,-0.10933 -0.322145,-0.17767 -0.173959,-0.0752 -0.399462,-0.0752 -0.560533,0 -0.805363,0.48516 -0.244832,0.47833 -0.244832,1.44865 0,0.51933 0.07088,0.88832 0.07731,0.369 0.212616,0.60133 0.135301,0.23233 0.328589,0.34166 0.193287,0.10933 0.431675,0.10933 0.19973,0 0.341475,-0.0478 v -1.85181 h 0.579862 v 2.22764 q -0.173959,0.0889 -0.431675,0.15033 -0.257717,0.0615 -0.541205,0.0615 -0.347918,0 -0.644292,-0.1435 -0.296374,-0.15034 -0.515433,-0.451 -0.212617,-0.3075 -0.335032,-0.77216 -0.115972,-0.4715 -0.115972,-1.11382 z" />
      <rect
         style="opacity:1;fill:#fc593f;fill-opacity:1;stroke:none;stroke-width:0.12441027;stroke-linecap:round;stroke-linejoin:round;stroke-miterlimit:4;stroke-dasharray:none"
         id="rect4645"
         width="15.342195"
         height="4.3561978"
         x="40.09544"
         y="295.72699" />
      <text
         xml:space="preserve"
         style="font-style:normal;font-variant:normal;font-weight:300;font-stretch:normal;font-size:4.71769905px;line-height:2.21142125px;font-family:'Josefin Sans';-inkscape-font-specification:'Josefin Sans, Light';font-variant-ligatures:normal;font-variant-caps:normal;font-variant-numeric:normal;font-feature-settings:normal;text-align:start;letter-spacing:0px;word-spacing:0px;writing-mode:lr-tb;text-anchor:start;fill:#ffffff;fill-opacity:1;stroke:none;stroke-width:0.08845686"
         x="43.006134"
         y="279.37476"
         id="text4649"
         transform="scale(0.93214099,1.0727991)"><tspan
           sodipodi:role="line"
           id="tspan4647"
           x="43.006134"
           y="279.37476"
           style="font-style:normal;font-variant:normal;font-weight:300;font-stretch:normal;font-size:4.71769905px;font-family:'Josefin Sans';-inkscape-font-specification:'Josefin Sans, Light';font-variant-ligatures:normal;font-variant-caps:normal;font-variant-numeric:normal;font-feature-settings:normal;text-align:start;writing-mode:lr-tb;text-anchor:start;fill:#ffffff;stroke-width:0.08845686">OOKER</tspan></text>
    </g>
  </g>
</svg>
